<?xml version="1.0" encoding="UTF-8"?>
<svg id="Vrstva_1" xmlns="http://www.w3.org/2000/svg" version="1.1" xmlns:xlink="http://www.w3.org/1999/xlink" viewBox="0 0 230 97.4">
  <!-- Generator: Adobe Illustrator 29.6.0, SVG Export Plug-In . SVG Version: 2.1.1 Build 207)  -->
  <defs>
    <style>
      .st0 {
        fill: #eb664a;
      }

      .st1 {
        fill: none;
      }

      .st2 {
        fill: #eb9636;
      }

      .st3 {
        fill: #0d5452;
      }

      .st4 {
        clip-path: url(#clippath);
      }
    </style>
    <clipPath id="clippath">
      <rect class="st1" x="-15.77" y="-20.85" width="232.99" height="281.86" transform="translate(-25.16 213.45) rotate(-86.58)"/>
    </clipPath>
  </defs>
  <g id="Vrstva_1-2">
    <g class="st4">
      <g>
        <path class="st0" d="M-19.54,96.55c-6.6,11.91-11.99,18.97-12,32.74-.01,19.27,6.59,36.6,17.22,53.63,3.77,6.02,7.62,10.68,14.16,14.47,3.99,2.31,7.33,3.66,11.49,5.48,14.13,6.17,27.89,13.15,42.37,18.69,12.57,4.79,21.32,6.44,35.19,5.62,15.69-.92,28.35-6.1,43.29-9.66,3.25-.78,6.67-1.14,9.95-1.88,15.46-3.58,31.14-7.92,46.22-12.8,19.25-6.21,29.78-12.13,38.46-28.16,7.96-14.68,3.56-23.95,2.81-38.91-.27-5.2.3-10.42-.32-15.64-1.83-15.91-6.47-30-15.25-44.13-11.97-19.27-29.38-42.18-48.89-56.42-5.05-3.67-16.4-6.12-22.97-6-10.89.15-20.74,3.59-31.44,3.96-14.58.46-28.94.13-43.29,3.02-7.48,1.53-15.38,3.47-21.86,7.01-4.58,2.49-8.55,5.79-13.65,7.92-7.52,3.12-16.35,4.09-23.11,8.3-3.4,2.1-9.6,8.19-11.93,11.31-3.35,4.49-2.5,6.42-3.65,11.01-.55,2.18-1.43,6.45-2.09,8.29-.62,1.65-2.15,3.5-2.8,5.04-2.6,6.11-4.6,11.1-7.88,17.04M-31.37,96.33c4.75-7.03,9.11-13.7,11.2-21.68,2-7.53,2.81-17.6,7.89-24.13.55-.71,1.36-1.1,1.83-1.66,3.89-4.74,10.71-13.81,17.11-16.2,1.38-.53,3.7-.69,5.15-1.18,6.97-2.27,19.28-5.79,24.88-9.31.89-.54,1.06-1.26,2.14-1.8,11.15-5.3,32.24-8,45.16-8.96,5.13-.39,10.73.23,15.86-.04,10.48-.58,20.88-3.32,31.22-4.05,3.23-.25,6.68-.08,9.98-.29,5.17-.31,8.39-1.51,13.62.04,8.8,2.68,15.73,6.97,22.29,12.39,7.97,6.6,14.86,14.99,21.89,22.58,4.93,5.3,8.62,11.62,12.63,17.54,2.88,4.25,4.02,8.08,6.4,12.51.65,1.23,1.24,3.18,2.01,4.19.62.81,1.96.59,2.58,1.4,1.61,2.13,2.81,5.09,4,7.43,1.72,3.39,4.02,6.56,5.67,10.14,6.68,14.64,3.84,30.57,3.64,45.58-.1,7.62,2.42,13.5,3.43,20.69.38,2.7-1.36,10.58-3.02,12.85-.47.63-1.47.94-1.79,1.47-.2.26-1.21,2.54-1.69,3.37-1.68,2.95-5.09,9.64-7.54,11.92-1.95,1.8-5.25,3.34-7.31,4.84-3.52,2.56-7.52,7.11-11.4,8.74-1.77.75-3.86,1.18-5.63,1.96-4.42,1.89-7.41,4.61-12.54,6.02-2.37.65-4.68.47-7,.9-14.22,2.52-27.21,8.48-41.67,10.24-8,2.73-17.71,2.72-25.85,4.77-3.71.96-7.48,2.78-11.18,3.86-16.71,4.87-34.65,3.38-50.86-1.52-.87-.25-3.35-.89-3.84-1.09-.79-.33-1.14-1.13-1.78-1.34-4.96-1.7-9.84-3.62-14.47-6.06-5.35-2.77-9.11-6.52-14.61-9.1-9.4-4.4-19.46-7.87-28.66-12.76-1.7-1.75-3.69-3.59-5.27-5.38-5.62-6.57-7.75-11.75-11.29-19.17-1.61-3.35-1.83-5.13-2.95-8.43-8.58-25.12-16.49-47.23-.3-71.2"/>
        <path class="st2" d="M6.33,136.66c-1.52,10.69-3.56,17.38.5,27.93,5.69,14.73,15.87,26.39,29.03,36.86,4.64,3.7,9,6.32,15.11,7.67,3.73.83,6.68,1.02,10.43,1.43,12.63,1.31,25.24,3.37,38,4.11,11.06.65,18.25-.2,28.6-4.12,11.73-4.48,19.9-11.46,30.28-17.77,2.28-1.38,4.77-2.48,7.05-3.82,10.76-6.45,21.47-13.54,31.62-20.88,12.93-9.38,19.2-16.45,21.13-30.77,1.74-13.15-4.35-19.16-9.34-30.42-1.75-3.92-2.85-8.01-4.86-11.9-6.08-11.7-13.85-21.37-24.71-30.06-14.87-11.88-34.98-25.19-54.11-31.38-4.96-1.62-14.36-.71-19.37.93-8.31,2.72-14.82,7.74-22.91,10.58-11.03,3.86-22.12,7.04-32.26,12.7-5.28,2.96-10.76,6.33-14.68,10.58-2.78,2.99-4.81,6.5-8.12,9.33-4.86,4.22-11.31,7.08-15.24,11.9-1.96,2.41-4.95,8.55-5.79,11.52-1.22,4.21,0,5.5.46,9.27.21,1.83.84,5.3.83,6.85.04,1.4-.58,3.21-.62,4.53-.15,5.31-.27,9.59-.99,14.92M-2.81,139.32c1.55-6.52,2.9-12.66,2.14-19.25-.73-6.24-3.05-14.16-1.09-20.32.21-.68.72-1.19.92-1.72,1.57-4.58,4.13-13.12,8.32-16.49.89-.73,2.62-1.41,3.59-2.14,4.65-3.4,13.04-9.04,16.3-13.08.51-.63.45-1.24,1.12-1.9,6.98-6.74,22.32-13.86,31.91-17.72,3.8-1.52,8.3-2.42,12.13-3.87,7.86-2.96,15.01-7.54,22.72-10.58,2.42-.96,5.09-1.68,7.55-2.59,3.87-1.48,5.97-3.17,10.45-3.23,7.55-.09,14.1,1.58,20.74,4.11,8.07,3.11,15.82,7.88,23.44,12,5.34,2.88,10.01,6.81,14.88,10.36,3.45,2.56,5.47,5.2,8.57,8.02.89.78,1.87,2.14,2.81,2.73.71.48,1.67-.03,2.38.45,1.86,1.23,3.66,3.21,5.25,4.74,2.29,2.19,5.01,4.05,7.33,6.39,9.44,9.6,11.96,22.45,16.3,33.95,2.19,5.87,5.87,9.72,8.75,15,1.08,1.97,2.11,8.4,1.48,10.55-.17.6-.83,1.08-.95,1.53-.08.26-.18,2.23-.27,2.95-.42,2.68-1.04,8.58-2.24,10.94-.96,1.87-3.03,3.82-4.14,5.46-1.94,2.83-3.66,7.22-6.15,9.42-1.13.99-2.59,1.82-3.72,2.85-2.84,2.5-4.32,5.3-7.84,7.63-1.62,1.05-3.42,1.5-5.07,2.36-10.16,5.33-18.31,13.02-28.88,17.84-5.35,4.02-12.77,6.35-18.37,9.87-2.59,1.6-4.89,3.92-7.44,5.63-11.37,7.72-25.53,10.88-39.38,11.06-.72-.02-2.85.11-3.26.06-.68-.06-1.2-.56-1.77-.58-4.28-.12-8.6-.4-12.9-1.16-4.91-.86-8.91-2.79-13.9-3.43-8.5-1.11-17.26-1.36-25.71-2.89-1.83-.92-3.89-1.85-5.61-2.85-6.27-3.67-9.39-7.13-14.3-11.94-2.21-2.19-2.9-3.5-4.73-5.75-14-17.16-26.59-32.12-21.3-54.35"/>
        <path class="st3" d="M86.97,58.98c-8.93.54-14.72.19-22.49,4.07-10.89,5.42-18.47,13.17-24.5,22.56-2.14,3.32-3.48,6.27-3.44,10.18,0,2.35.37,4.18.76,6.51,1.26,7.81,1.87,15.68,3.62,23.51,1.52,6.76,3.48,10.98,8.59,16.7,5.77,6.5,12.9,10.45,19.92,15.89,1.52,1.18,2.85,2.55,4.37,3.73,7.2,5.63,14.9,11.12,22.68,16.27,9.94,6.54,16.8,9.39,28.74,8.59,10.94-.71,14.71-5.24,22.88-9.78,2.85-1.59,5.96-2.83,8.74-4.53,8.34-5.26,14.77-11.26,19.81-19.01,6.9-10.58,14.01-24.52,15.5-36.96.39-3.21-2.03-8.78-4.3-11.58-3.74-4.66-8.95-7.92-12.74-12.38-5.14-6.14-9.74-12.41-16.19-17.75-3.33-2.79-7.09-5.62-11.24-7.41-2.92-1.26-6.13-2.03-9.04-3.63-4.3-2.36-7.8-5.87-12.42-7.6-2.33-.86-7.8-1.81-10.38-1.92-3.64-.18-4.46.75-7.44,1.53-1.41.38-4.13,1.21-5.39,1.44-1.14.2-2.7.08-3.76.23-4.34.6-7.81,1.14-12.25,1.44M83.17,53.83c5.54.04,10.77.04,15.97-1.33,4.93-1.26,10.88-3.75,16.25-3.41.57.02,1.09.26,1.55.31,3.97.34,11.36.7,14.87,2.77.75.44,1.63,1.37,2.37,1.89,3.61,2.34,9.71,6.65,13.58,8.08.6.24,1.06.11,1.73.43,6.73,3.3,15.3,11.58,20.16,16.88,1.91,2.1,3.47,4.69,5.35,6.79,3.82,4.36,8.84,8.03,12.7,12.27,1.21,1.32,2.27,2.83,3.48,4.2,1.91,2.14,3.67,3.18,4.54,5.86,1.43,4.55,1.31,8.72.43,13.1-1.06,5.28-3.49,10.6-5.42,15.78-1.35,3.6-3.69,6.99-5.68,10.38-1.43,2.42-3.22,4.01-4.92,6.27-.47.63-1.37,1.44-1.69,2.04-.24.49.31,1,.07,1.52-.64,1.27-1.93,2.64-2.88,3.83-1.34,1.71-2.34,3.58-3.83,5.28-6.04,7-15.96,10.28-24.49,14.44-4.35,2.11-6.81,4.85-10.52,7.33-1.39.95-6.4,2.4-8.26,2.31-.53-.02-1.01-.37-1.43-.38-.23,0-1.83.21-2.43.23-2.24.13-7.15.52-9.26.12-1.66-.31-3.64-1.32-5.18-1.78-2.63-.8-6.53-1.21-8.73-2.41-1.01-.56-1.97-1.31-2.98-1.87-2.54-1.36-5.1-1.89-7.59-3.7-1.15-.83-1.84-1.87-2.84-2.77-6.18-5.41-13.88-9.31-19.72-15.01-4.21-2.66-7.47-6.85-11.33-9.77-1.78-1.34-4.07-2.43-5.93-3.73-8.33-5.81-13.49-13.92-16.13-22.3-.14-.46-.6-1.69-.67-1.95-.06-.42.25-.79.15-1.13-.69-2.6-1.22-5.23-1.41-7.93-.22-3.08.66-5.75.25-8.87-.68-5.29-2.05-10.6-2.36-15.92.41-1.24.79-2.59,1.28-3.79,1.83-4.27,4.06-6.64,7.04-10.27,1.34-1.63,2.3-2.25,3.78-3.65,11.31-10.79,21.14-20.41,40.06-20.26"/>
      </g>
    </g>
  </g>
</svg>