<?xml version="1.0" encoding="UTF-8"?>
<svg id="Vrstva_2" data-name="Vrstva 2" xmlns="http://www.w3.org/2000/svg" xmlns:xlink="http://www.w3.org/1999/xlink" viewBox="0 0 58.38 11.98">
  <defs>
    <style>
      .cls-1 {
        clip-path: url(#clippath-6);
      }

      .cls-2 {
        clip-path: url(#clippath-7);
      }

      .cls-3 {
        clip-path: url(#clippath-4);
      }

      .cls-4 {
        fill: none;
      }

      .cls-5 {
        clip-path: url(#clippath-1);
      }

      .cls-6 {
        clip-path: url(#clippath-5);
      }

      .cls-7 {
        clip-path: url(#clippath-3);
      }

      .cls-8 {
        fill: #1d1d1b;
      }

      .cls-9 {
        clip-path: url(#clippath-2);
      }

      .cls-10 {
        fill: #0d5452;
      }

      .cls-11 {
        clip-path: url(#clippath);
      }
    </style>
    <clipPath id="clippath">
      <rect class="cls-4" width="58.38" height="11.98"/>
    </clipPath>
    <clipPath id="clippath-1">
      <rect class="cls-4" width="58.38" height="11.98"/>
    </clipPath>
    <clipPath id="clippath-2">
      <rect class="cls-4" width="58.38" height="11.98"/>
    </clipPath>
    <clipPath id="clippath-3">
      <rect class="cls-4" width="58.38" height="11.98"/>
    </clipPath>
    <clipPath id="clippath-4">
      <rect class="cls-4" width="58.38" height="11.98"/>
    </clipPath>
    <clipPath id="clippath-5">
      <rect class="cls-4" width="58.38" height="11.98"/>
    </clipPath>
    <clipPath id="clippath-6">
      <rect class="cls-4" width="58.38" height="11.98"/>
    </clipPath>
    <clipPath id="clippath-7">
      <rect class="cls-4" width="58.38" height="11.98"/>
    </clipPath>
  </defs>
  <g id="Vrstva_1-2" data-name="Vrstva 1">
    <g>
      <g class="cls-11">
        <path class="cls-8" d="M29.1,3.03h.45l-.14-.42s-.02-.07-.04-.12c-.01-.04-.03-.1-.04-.16h0s-.02.07-.03.1c0,.03-.02.06-.03.09,0,.03-.02.06-.03.09l-.14.42ZM28.23,3.78l.8-2.16h.64l.8,2.16h-.67l-.1-.32h-.73l-.1.32h-.63Z"/>
        <path class="cls-8" d="M31.52,3.82c-.19,0-.36-.03-.5-.08-.15-.05-.27-.13-.36-.24-.09-.11-.13-.24-.14-.41h.64c0,.05.03.1.06.14.03.04.07.06.12.08.05.02.11.03.18.03.04,0,.08,0,.13-.02.04-.01.08-.03.11-.05.03-.02.04-.06.04-.1s-.02-.08-.05-.1c-.03-.03-.08-.05-.14-.07-.06-.02-.14-.04-.22-.06-.09-.02-.18-.05-.27-.08-.09-.03-.18-.07-.26-.12-.08-.05-.14-.11-.19-.19-.05-.08-.07-.17-.07-.29,0-.17.04-.3.12-.4.08-.1.19-.17.32-.22.14-.04.28-.07.45-.07.11,0,.22.01.32.04.1.02.19.06.27.12.08.05.15.12.19.2.05.08.07.18.08.3h-.62c0-.06-.03-.11-.08-.14-.04-.04-.11-.05-.2-.05-.07,0-.13.01-.17.04-.04.03-.07.06-.07.11s.02.08.06.1c.04.02.1.04.17.06.08.02.17.04.27.07.09.02.18.05.26.08.09.03.16.07.23.12.07.05.12.12.16.19.04.08.06.17.06.29,0,.15-.04.29-.13.39-.08.11-.2.19-.34.24-.14.05-.3.08-.47.08"/>
        <path class="cls-8" d="M33.72,3.32c.08,0,.14-.02.2-.05.06-.03.1-.07.14-.13.04-.06.07-.12.09-.2.02-.07.03-.16.03-.24s0-.17-.03-.24c-.02-.08-.05-.14-.09-.2-.04-.06-.09-.1-.14-.13-.06-.03-.12-.05-.2-.05s-.14.02-.2.05c-.06.03-.1.07-.14.13-.04.06-.07.12-.09.2-.02.08-.03.16-.03.24s0,.17.03.24c.02.07.05.14.09.2.04.06.09.1.14.13.06.03.12.05.2.05M33.72,3.82c-.17,0-.32-.03-.45-.08-.13-.06-.25-.13-.34-.24-.1-.1-.17-.22-.22-.36-.05-.14-.08-.28-.08-.44s.03-.31.08-.45c.05-.14.12-.26.22-.36.1-.1.21-.18.34-.24.13-.06.29-.08.45-.08s.32.03.45.08c.14.06.25.13.35.24.1.1.17.22.22.36.05.14.08.28.08.45s-.03.31-.08.44c-.05.14-.13.25-.22.36-.1.1-.21.18-.35.24-.14.06-.29.08-.45.08"/>
        <path class="cls-8" d="M36.07,3.82c-.16,0-.31-.03-.45-.08-.13-.06-.25-.13-.35-.24-.1-.1-.17-.22-.22-.35-.05-.14-.08-.28-.08-.44s.03-.31.08-.44c.05-.14.13-.25.22-.36.1-.1.21-.18.35-.24.13-.06.28-.08.44-.08.12,0,.23.01.33.04.1.03.19.07.27.12.11.08.2.17.26.29.06.12.1.24.12.38h-.63c0-.06-.02-.11-.05-.16-.03-.05-.07-.09-.13-.12-.05-.03-.11-.04-.18-.04-.1,0-.18.03-.25.08-.07.05-.11.12-.15.21-.03.09-.05.19-.05.31s.02.22.05.31c.04.09.09.16.15.21.07.05.15.08.24.08.07,0,.14-.01.19-.04.05-.03.1-.07.13-.12.03-.05.05-.11.06-.17h.63c0,.12-.04.23-.09.33-.05.1-.11.19-.19.26-.09.09-.2.16-.32.2-.12.04-.26.06-.41.06"/>
      </g>
      <rect class="cls-8" x="37.32" y="1.62" width=".63" height="2.16"/>
      <g class="cls-5">
        <path class="cls-8" d="M39.02,3.03h.45l-.14-.42s-.02-.07-.04-.12c-.01-.04-.03-.1-.04-.16h0s-.02.07-.03.1c0,.03-.02.06-.03.09,0,.03-.02.06-.03.09l-.14.42ZM38.15,3.78l.8-2.16h.64l.8,2.16h-.67l-.1-.32h-.73l-.1.32h-.63Z"/>
        <path class="cls-8" d="M41.44,3.82c-.16,0-.31-.03-.45-.08-.13-.06-.25-.13-.35-.24-.1-.1-.17-.22-.22-.35-.05-.14-.08-.28-.08-.44s.03-.31.08-.44c.05-.14.13-.25.22-.36.1-.1.21-.18.35-.24.13-.06.28-.08.44-.08.12,0,.23.01.33.04.1.03.19.07.27.12.11.08.2.17.26.29.06.12.1.24.12.38h-.63c0-.06-.02-.11-.05-.16-.03-.05-.07-.09-.13-.12-.05-.03-.11-.04-.18-.04-.1,0-.18.03-.25.08-.07.05-.11.12-.15.21-.03.09-.05.19-.05.31s.02.22.05.31c.04.09.09.16.15.21.07.05.15.08.24.08.07,0,.14-.01.19-.04.05-.03.1-.07.13-.12.03-.05.05-.11.06-.17h.63c0,.12-.04.23-.09.33-.05.1-.11.19-.19.26-.09.09-.2.16-.32.2-.12.04-.26.06-.41.06"/>
      </g>
      <polygon class="cls-8" points="42.69 3.78 42.69 1.62 44.37 1.62 44.37 2.13 43.32 2.13 43.32 2.43 44.2 2.43 44.2 2.9 43.32 2.9 43.32 3.24 44.4 3.24 44.4 3.78 42.69 3.78"/>
      <g class="cls-9">
        <path class="cls-8" d="M29.29,7.3c-.21,0-.39-.05-.54-.15-.15-.1-.27-.23-.35-.4-.08-.17-.12-.36-.12-.58,0-.16.02-.3.07-.44.05-.14.12-.25.21-.36.09-.1.2-.18.34-.24.13-.06.28-.09.45-.09.19,0,.35.03.49.09.14.06.25.15.34.27.09.11.14.25.16.41h-.61s-.03-.09-.06-.13c-.03-.04-.07-.07-.12-.09-.05-.02-.11-.03-.17-.03-.08,0-.14.01-.2.04-.06.03-.1.07-.14.13-.04.05-.07.12-.09.19-.02.07-.03.15-.03.24,0,.12.02.22.06.31.04.09.09.16.16.22.07.05.16.08.26.08.08,0,.14-.01.2-.04.05-.03.1-.06.13-.1.03-.04.05-.09.06-.15v.03s-.29,0-.29,0v-.45h.89v1.18h-.42l-.05-.24h0c-.05.07-.1.12-.16.16-.06.04-.13.07-.21.09-.08.02-.16.03-.25.03"/>
      </g>
      <polygon class="cls-8" points="30.69 7.26 30.69 5.1 31.32 5.1 31.32 6.72 32.24 6.72 32.24 7.26 30.69 7.26"/>
      <g class="cls-7">
        <path class="cls-8" d="M33.27,6.51h.45l-.14-.42s-.02-.07-.04-.12c-.01-.04-.03-.1-.04-.16h0s-.02.07-.03.1c0,.03-.02.06-.03.09,0,.03-.02.06-.03.09l-.14.42ZM32.39,7.26l.8-2.16h.64l.8,2.16h-.67l-.1-.32h-.73l-.1.32h-.63Z"/>
        <path class="cls-8" d="M34.83,7.26v-2.16h.82l.25.9s.02.08.03.12c0,.04.02.07.03.1,0,.03.02.06.02.09h0s.02-.06.02-.09c0-.03.02-.06.03-.1.01-.04.02-.08.03-.13l.24-.89h.83v2.16h-.57v-1.35h0s-.02.09-.03.13c-.01.04-.02.08-.03.13-.01.05-.03.1-.04.15l-.25.94h-.46l-.25-.94c-.01-.05-.03-.1-.04-.15-.01-.05-.02-.09-.03-.13-.01-.04-.02-.08-.03-.13h0v1.35h-.56Z"/>
        <path class="cls-8" d="M38.11,6.11h.34c.08,0,.14-.02.18-.07.04-.05.07-.11.07-.18s-.02-.13-.07-.17c-.04-.04-.11-.07-.19-.07h-.33v.49ZM37.48,7.26v-2.16h.99c.14,0,.26.02.36.05.1.03.19.08.26.15.08.07.14.15.18.25.04.1.06.2.06.33,0,.14-.03.26-.1.37-.06.11-.15.2-.26.26-.11.06-.24.1-.39.1h-.48v.66h-.63Z"/>
      </g>
      <rect class="cls-8" x="39.56" y="5.1" width=".63" height="2.16"/>
      <g class="cls-3">
        <path class="cls-8" d="M40.53,7.26v-2.16h.63l.55.94s.03.05.04.07c.01.02.03.05.04.07.01.02.03.05.04.07.01.02.03.05.04.07h0v-1.21h.61v2.16h-.65l-.57-1.01s-.02-.03-.03-.05c0-.02-.02-.04-.03-.05,0-.02-.02-.04-.03-.05,0-.02-.02-.04-.03-.05h0v1.22h-.61Z"/>
        <path class="cls-8" d="M43.73,7.3c-.21,0-.39-.05-.54-.15-.15-.1-.27-.23-.35-.4-.08-.17-.12-.36-.12-.58,0-.16.02-.3.07-.44.05-.14.12-.25.21-.36.09-.1.2-.18.34-.24.13-.06.28-.09.45-.09.19,0,.35.03.49.09.14.06.25.15.34.27.09.11.14.25.16.41h-.61s-.03-.09-.06-.13c-.03-.04-.07-.07-.12-.09-.05-.02-.11-.03-.17-.03-.08,0-.14.01-.2.04-.06.03-.1.07-.14.13-.04.05-.07.12-.09.19-.02.07-.03.15-.03.24,0,.12.02.22.06.31.04.09.09.16.16.22.07.05.16.08.26.08.08,0,.14-.01.2-.04.05-.03.1-.06.13-.1.03-.04.05-.09.06-.15v.03s-.29,0-.29,0v-.45h.89v1.18h-.42l-.05-.24h0c-.05.07-.1.12-.16.16-.06.04-.13.07-.21.09-.08.02-.16.03-.25.03"/>
        <path class="cls-8" d="M46.08,7.3c-.22,0-.39-.03-.54-.1-.14-.07-.25-.17-.32-.3-.07-.13-.1-.28-.1-.46v-1.33h.63v1.37c0,.07.01.12.04.17.02.05.06.09.11.11.05.03.11.04.19.04.07,0,.13-.01.18-.04.05-.03.08-.07.11-.12.02-.05.04-.11.04-.17v-1.36h.63v1.33c0,.18-.04.33-.11.46-.07.13-.18.23-.32.3-.14.07-.32.11-.54.11"/>
        <path class="cls-8" d="M29.1,9.99h.45l-.14-.42s-.02-.07-.04-.12c-.01-.04-.03-.1-.04-.16h0s-.02.07-.03.1c0,.03-.02.06-.03.09,0,.03-.02.06-.03.09l-.14.42ZM28.23,10.74l.8-2.16h.64l.8,2.16h-.67l-.1-.32h-.73l-.1.32h-.63Z"/>
        <path class="cls-8" d="M31.1,10.74v-2.16h.82l.25.9s.02.08.03.12c0,.04.02.07.03.1,0,.03.02.06.02.09h0s.02-.06.02-.09c0-.03.02-.06.03-.1.01-.04.02-.08.03-.13l.24-.89h.83v2.16h-.57v-1.35h0s-.02.09-.03.13c-.01.04-.02.08-.03.13-.01.05-.03.1-.04.15l-.25.94h-.46l-.25-.94c-.01-.05-.03-.1-.04-.15-.01-.05-.02-.09-.03-.13-.01-.04-.02-.08-.03-.13h0v1.35h-.56Z"/>
        <path class="cls-8" d="M34.49,9.99h.45l-.14-.42s-.02-.07-.04-.12c-.01-.04-.03-.1-.04-.16h0s-.02.07-.03.1c0,.03-.02.06-.03.09,0,.03-.02.06-.03.09l-.14.42ZM33.61,10.74l.8-2.16h.64l.8,2.16h-.67l-.1-.32h-.73l-.1.32h-.63Z"/>
      </g>
      <polygon class="cls-8" points="36.05 10.74 36.05 8.58 36.68 8.58 36.68 10.2 37.6 10.2 37.6 10.74 36.05 10.74"/>
      <path class="cls-8" d="M38.47,8.49l.13-.41h.65l-.35.41h-.43ZM37.85,10.74v-2.16h1.68v.51h-1.05v.29h.88v.47h-.88v.34h1.08v.54h-1.71Z"/>
      <polygon class="cls-8" points="39.85 10.74 39.85 8.58 40.48 8.58 40.48 9.37 41.14 9.37 41.14 8.58 41.77 8.58 41.77 10.74 41.14 10.74 41.14 9.9 40.48 9.9 40.48 10.74 39.85 10.74"/>
      <g class="cls-6">
        <path class="cls-8" d="M43.12,10.28c.08,0,.14-.02.2-.05.06-.03.1-.07.14-.13.04-.06.07-.12.09-.2.02-.07.03-.16.03-.24s0-.17-.03-.24c-.02-.08-.05-.14-.09-.2-.04-.06-.09-.1-.14-.13-.06-.03-.12-.05-.2-.05s-.14.02-.2.05c-.06.03-.1.07-.14.13-.04.06-.07.12-.09.2-.02.08-.03.16-.03.24s0,.17.03.24.05.14.09.2c.04.06.09.1.14.13.06.03.12.05.2.05M43.11,10.78c-.17,0-.32-.03-.45-.08-.13-.06-.25-.13-.34-.24-.1-.1-.17-.22-.22-.36-.05-.14-.08-.28-.08-.44s.03-.31.08-.45c.05-.14.12-.26.22-.36.1-.1.21-.18.34-.24.13-.06.29-.08.45-.08s.32.03.45.08c.14.06.25.13.35.24.1.1.17.22.22.36.05.14.08.28.08.45s-.03.31-.08.44c-.05.14-.13.25-.22.36-.1.1-.21.18-.35.24-.14.06-.29.08-.45.08"/>
        <path class="cls-8" d="M45.51,10.24h.45s.07,0,.1-.02c.03-.01.06-.03.08-.05.02-.02.03-.04.04-.06,0-.02.01-.05.01-.08,0-.05-.01-.08-.03-.12-.02-.03-.05-.05-.08-.07-.03-.02-.07-.02-.12-.02h-.45v.42ZM45.51,9.42h.4c.06,0,.11-.01.14-.04.04-.03.06-.07.06-.13,0-.04,0-.07-.03-.09-.02-.03-.04-.05-.07-.06-.03-.01-.07-.02-.11-.02h-.39v.35ZM44.89,10.74v-2.16h1.12c.11,0,.2.01.28.04.08.02.15.06.2.1.07.05.12.11.15.18.04.07.05.15.05.24,0,.1-.02.19-.07.25-.04.07-.11.12-.2.16h0c.12.05.21.11.27.21.06.09.1.2.1.32s-.02.22-.07.31c-.04.09-.11.16-.18.21-.06.04-.14.08-.22.1-.09.02-.19.03-.3.03h-1.14Z"/>
        <path class="cls-8" d="M47.55,10.74v-.76l-.74-1.4h.68l.23.48s.04.08.06.12c.02.04.03.08.05.11.01.03.03.07.04.11h0s.03-.08.04-.11c.01-.03.03-.07.05-.11.02-.04.04-.08.06-.12l.23-.48h.67l-.74,1.4v.76h-.63Z"/>
        <path class="cls-8" d="M49.75,10.22h.28c.1,0,.18-.02.26-.06.07-.04.13-.1.17-.18.04-.08.06-.18.06-.31s-.02-.22-.06-.3c-.04-.08-.1-.15-.17-.19-.07-.04-.16-.07-.26-.07h-.28v1.11ZM49.12,10.74v-2.16h.99c.16,0,.3.02.43.07.13.05.24.12.33.21.09.09.17.21.22.34.05.13.08.29.08.46s-.02.32-.07.46c-.05.13-.12.25-.21.34-.09.09-.21.16-.34.21-.13.05-.28.07-.45.07h-.97Z"/>
      </g>
      <polygon class="cls-8" points="51.42 10.74 51.42 8.58 52.05 8.58 52.05 10.2 52.97 10.2 52.97 10.74 51.42 10.74"/>
      <polygon class="cls-8" points="53.22 10.74 53.22 8.58 54.9 8.58 54.9 9.1 53.85 9.1 53.85 9.39 54.73 9.39 54.73 9.86 53.85 9.86 53.85 10.2 54.93 10.2 54.93 10.74 53.22 10.74"/>
      <g class="cls-1">
        <path class="cls-8" d="M55.21,10.74v-2.16h.63l.55.94s.03.05.04.07c.01.02.03.05.04.07.01.02.03.05.04.07.01.02.03.05.04.07h0v-1.21h.61v2.16h-.65l-.57-1.01s-.02-.03-.03-.05c0-.02-.02-.04-.03-.05,0-.02-.02-.04-.03-.05,0-.02-.02-.04-.03-.05h0v1.22h-.61Z"/>
      </g>
      <path class="cls-8" d="M57.5,10.74h.63v-2.16h-.63v2.16ZM57.73,8.08l-.13.41h.43l.35-.41h-.65Z"/>
      <g class="cls-2">
        <path class="cls-10" d="M21.86,9.2h-5.86v-1.5l2.92-3.42,2.94,3.44v1.48ZM4.94,9.24c.79-1.3,1.5-2.47,2.36-3.9.85,1.39,1.56,2.56,2.37,3.9h-4.73ZM24.64,6.69l-2.78-3.25-1.11-1.3L18.92,0l-1.83,2.14-1.1,1.28-2.78,3.25v3.03c-1.42-2.31-2.78-4.53-4.15-6.75-.53-.86-1.07-1.72-1.77-2.84C4.81,4.16,2.44,8.01,0,11.98h14.62s0,0,0,0h10.02v-5.29Z"/>
      </g>
    </g>
  </g>
</svg>